<?xml version="1.0" standalone="no"?>
<!DOCTYPE svg PUBLIC "-//W3C//DTD SVG 20010904//EN"
 "http://www.w3.org/TR/2001/REC-SVG-20010904/DTD/svg10.dtd">
<svg version="1.0" xmlns="http://www.w3.org/2000/svg"
 width="500.000000pt" height="500.000000pt" viewBox="0 0 500.000000 500.000000"
 preserveAspectRatio="xMidYMid meet">

<g transform="translate(0.000000,500.000000) scale(0.100000,-0.100000)"
fill="#ffffff" stroke="none">
<path d="M2943 3752 c-9 -6 -13 -55 -15 -167 -3 -134 -5 -160 -18 -160 -12 0
-16 24 -20 140 l-5 140 -20 -40 c-30 -62 -33 -194 -6 -266 12 -31 32 -66 46
-79 l25 -23 0 -528 c0 -574 -1 -559 55 -559 55 0 55 -1 55 562 l0 518 34 44
c18 24 39 68 46 96 17 72 9 185 -18 235 l-21 40 -1 -138 c0 -117 -2 -139 -16
-144 -29 -11 -35 20 -32 170 1 102 -2 151 -10 159 -9 9 -12 -23 -13 -140 -2
-179 -1 -168 -16 -183 -26 -26 -33 8 -35 168 -2 125 -6 161 -15 155z"/>
<path d="M3304 3741 c-20 -12 -42 -41 -59 -76 -52 -106 -32 -277 41 -346 l24
-22 0 -533 c0 -528 0 -533 21 -544 29 -16 62 -8 75 18 8 16 12 177 13 543 2
510 2 520 22 540 12 12 31 42 42 68 30 64 30 206 0 272 -41 90 -111 121 -179
80z"/>
<path d="M1383 3690 c-6 -16 -25 -37 -41 -47 l-30 -19 28 -13 c18 -8 34 -25
42 -47 l12 -34 13 30 c7 17 26 38 42 47 l29 17 -29 18 c-17 10 -36 32 -43 48
l-12 29 -11 -29z"/>
<path d="M1616 3577 c-9 -47 -62 -101 -113 -115 -21 -5 -30 -10 -20 -11 30 -2
96 -40 108 -64 7 -12 18 -40 25 -62 9 -28 13 -33 13 -17 2 43 40 101 81 122
21 11 47 20 57 21 10 1 1 6 -20 11 -50 13 -102 66 -114 115 l-9 38 -8 -38z"/>
<path d="M2453 3265 c-66 -28 -89 -115 -45 -174 12 -17 22 -39 22 -51 0 -18 6
-20 65 -20 36 0 68 0 73 0 4 0 9 12 10 27 2 15 10 36 19 45 20 23 27 88 11
118 -17 31 -74 70 -102 70 -12 -1 -35 -7 -53 -15z"/>
<path d="M2299 2965 c-313 -59 -600 -272 -749 -556 -36 -68 -100 -241 -100
-268 0 -7 21 -11 54 -11 l53 0 28 83 c35 104 64 162 130 263 56 83 176 206
258 262 119 83 308 150 432 155 47 2 60 -1 60 -13 0 -10 -21 -20 -60 -31 -355
-96 -613 -346 -720 -696 l-6 -23 936 0 937 0 -8 32 c-12 56 -44 147 -72 206
l-27 57 -5 -101 c-3 -60 -10 -107 -18 -116 -27 -33 -112 -28 -126 8 -3 8 -6
106 -6 218 l-1 204 -62 59 c-56 54 -147 123 -161 123 -3 0 -6 -132 -6 -294 0
-272 -1 -295 -19 -317 -23 -29 -81 -31 -111 -4 -19 18 -20 28 -20 357 l0 339
-37 15 c-20 9 -71 25 -112 36 -100 27 -351 34 -462 13z"/>
<path d="M910 2074 c8 -2 149 -26 313 -54 l298 -50 978 0 979 0 298 50 c165
28 306 52 314 54 8 2 -707 4 -1590 4 -883 0 -1598 -2 -1590 -4z"/>
<path d="M1595 1880 l39 -40 866 0 866 0 32 33 c18 18 32 36 32 40 0 4 -422 7
-937 7 l-937 0 39 -40z"/>
<path d="M1113 1793 c-10 -3 -13 -52 -13 -194 l0 -189 40 0 40 0 0 75 0 75 34
0 c40 0 50 -11 66 -70 6 -25 13 -53 16 -62 4 -14 16 -18 49 -18 l44 0 -19 64
c-21 74 -35 103 -52 109 -8 2 -1 14 18 30 62 53 52 135 -20 168 -39 18 -170
26 -203 12z m155 -69 c50 -35 11 -110 -55 -102 -25 3 -28 7 -31 47 -2 24 -1
50 2 57 7 19 56 18 84 -2z"/>
<path d="M2053 1759 c-28 -8 -33 -14 -33 -39 0 -23 -4 -30 -20 -30 -16 0 -20
-7 -20 -30 0 -23 4 -30 20 -30 18 0 20 -7 20 -80 0 -43 5 -90 11 -103 14 -30
48 -47 94 -47 33 0 35 2 35 35 0 28 -4 35 -20 35 -28 0 -41 33 -38 98 3 57 3
57 36 60 29 3 33 6 30 30 -2 22 -9 28 -35 30 -31 3 -33 6 -33 43 0 21 -3 39
-7 38 -5 0 -23 -5 -40 -10z"/>
<path d="M3815 1765 c-5 -2 -22 -6 -37 -9 -23 -5 -28 -12 -28 -36 0 -20 -5
-30 -15 -30 -10 0 -15 -10 -15 -30 0 -19 5 -30 14 -30 10 0 15 -23 18 -91 4
-86 6 -93 32 -116 22 -19 38 -23 70 -21 38 3 41 5 44 35 3 28 0 32 -25 35 -28
3 -28 4 -31 81 l-3 77 31 0 c27 0 30 3 30 30 0 27 -3 30 -30 30 -28 0 -30 2
-30 40 0 38 -3 42 -25 35z"/>
<path d="M2287 1689 c-58 -9 -61 -11 -53 -42 6 -24 8 -24 46 -15 29 8 48 7 66
0 36 -17 31 -42 -8 -42 -48 -1 -115 -34 -123 -62 -30 -94 47 -158 135 -113 17
9 30 11 30 5 0 -5 18 -10 41 -10 l41 0 -4 108 c-4 108 -15 144 -48 158 -36 15
-78 19 -123 13z m89 -164 c4 -8 -1 -27 -11 -41 -22 -34 -68 -31 -73 5 -4 29
20 51 55 51 13 0 26 -7 29 -15z"/>
<path d="M1486 1669 c-38 -30 -56 -71 -56 -126 0 -98 64 -150 172 -140 70 6
77 10 70 42 -4 24 -7 25 -52 19 -57 -8 -109 15 -110 49 0 4 41 7 91 7 l91 0
-4 57 c-4 48 -10 61 -37 85 -26 23 -40 28 -85 28 -39 0 -60 -6 -80 -21z m118
-51 c24 -34 20 -38 -39 -38 -59 0 -68 10 -38 42 22 25 59 23 77 -4z"/>
<path d="M1782 1674 c-63 -44 -48 -110 35 -149 39 -19 53 -31 51 -43 -3 -14
-15 -17 -61 -16 -48 1 -57 -2 -63 -18 -9 -29 9 -41 68 -45 135 -10 192 108 78
164 -64 31 -74 41 -59 59 7 9 27 13 53 12 38 -3 41 -1 41 22 0 24 -3 25 -60
28 -43 2 -67 -2 -83 -14z"/>
<path d="M2530 1591 c0 -54 5 -112 11 -130 20 -57 103 -80 152 -41 30 24 37
25 37 5 0 -10 11 -15 35 -15 l35 0 0 140 0 140 -45 0 -45 0 0 -98 c0 -103 -7
-122 -45 -122 -38 0 -45 19 -45 122 l0 98 -45 0 -45 0 0 -99z"/>
<path d="M2874 1663 c2 -15 5 -79 5 -140 l1 -113 40 0 40 0 0 81 c0 96 9 116
55 125 32 6 35 9 35 40 0 31 -3 34 -29 34 -20 0 -36 -9 -50 -25 l-20 -26 -3
23 c-2 19 -10 24 -41 26 -36 3 -38 2 -33 -25z"/>
<path d="M3118 1683 c-17 -4 -25 -42 -13 -55 3 -3 23 0 45 5 28 8 46 8 64 -1
39 -18 34 -42 -9 -42 -50 0 -110 -33 -124 -68 -34 -83 54 -151 139 -107 17 9
30 11 30 5 0 -5 18 -10 40 -10 l40 0 0 83 c0 156 -29 198 -134 196 -33 -1 -69
-3 -78 -6z m122 -172 c0 -34 -20 -54 -52 -49 -16 2 -24 11 -26 27 -4 29 20 51
55 51 19 0 23 -5 23 -29z"/>
<path d="M3400 1550 l0 -140 45 0 45 0 0 93 c0 81 3 96 20 112 17 15 24 16 45
7 24 -11 25 -15 25 -112 l0 -100 45 0 45 0 0 95 c0 104 -15 156 -48 174 -29
16 -93 13 -116 -4 -25 -19 -36 -19 -36 0 0 10 -11 15 -35 15 l-35 0 0 -140z"/>
<path d="M1770 1285 c0 -30 5 -55 10 -55 6 0 10 11 10 24 0 18 7 26 23 29 l22
4 -22 2 c-28 1 -31 31 -3 31 11 0 20 5 20 10 0 6 -13 10 -30 10 -30 0 -30 -1
-30 -55z"/>
<path d="M1902 1328 c-7 -7 -12 -26 -12 -43 0 -17 5 -36 12 -43 30 -30 88 1
88 46 0 42 -59 69 -88 40z m63 -28 c9 -28 -5 -51 -29 -48 -13 2 -22 12 -24 26
-7 46 39 65 53 22z"/>
<path d="M2056 1324 c-31 -30 -10 -94 30 -94 33 0 54 21 54 53 0 18 -5 38 -12
45 -17 17 -54 15 -72 -4z m54 -8 c6 -8 10 -25 8 -38 -2 -17 -10 -23 -28 -23
-18 0 -26 6 -28 23 -3 22 13 52 28 52 4 0 13 -7 20 -14z"/>
<path d="M2200 1285 c0 -54 1 -55 28 -55 35 0 62 27 62 63 0 29 -24 47 -64 47
-25 0 -26 -3 -26 -55z m68 -3 c-2 -19 -10 -28 -25 -30 -20 -3 -23 1 -23 31 0
41 7 49 32 36 13 -7 18 -19 16 -37z"/>
<path d="M2424 1326 c-3 -7 -4 -17 -3 -22 1 -5 -1 -17 -5 -26 -14 -32 0 -48
43 -46 34 1 40 5 44 27 6 30 0 41 -12 22 -5 -7 -14 -10 -20 -6 -9 5 -9 10 0
21 6 7 9 21 5 29 -7 19 -45 20 -52 1z m36 -11 c0 -8 -4 -15 -10 -15 -5 0 -10
7 -10 15 0 8 5 15 10 15 6 0 10 -7 10 -15z m-2 -59 c3 -12 -1 -17 -10 -14 -7
3 -15 13 -16 22 -3 12 1 17 10 14 7 -3 15 -13 16 -22z"/>
<path d="M2630 1285 c0 -52 1 -55 26 -55 43 0 64 17 64 53 0 42 -15 57 -57 57
l-33 0 0 -55z m68 -3 c-2 -19 -10 -28 -25 -30 -20 -3 -23 1 -23 31 0 41 7 49
32 36 13 -7 18 -19 16 -37z"/>
<path d="M2780 1285 c0 -30 5 -55 10 -55 6 0 10 9 10 19 0 31 19 35 30 7 5
-14 14 -26 20 -26 13 0 13 6 -1 31 -7 15 -7 24 2 35 17 20 -6 44 -42 44 -28 0
-29 -1 -29 -55z m50 19 c0 -8 -7 -14 -15 -14 -15 0 -21 21 -9 33 10 9 24 -2
24 -19z"/>
<path d="M2910 1285 c0 -30 5 -55 10 -55 6 0 10 25 10 55 0 30 -4 55 -10 55
-5 0 -10 -25 -10 -55z"/>
<path d="M2990 1285 c0 -30 5 -55 10 -55 6 0 10 16 10 35 0 43 10 44 31 3 25
-52 39 -47 39 16 0 31 -4 56 -10 56 -5 0 -10 -15 -10 -32 l0 -33 -21 33 c-32
50 -49 42 -49 -23z"/>
<path d="M3140 1285 c0 -30 5 -55 10 -55 6 0 10 9 10 19 0 30 16 33 30 6 7
-14 19 -25 27 -25 9 0 7 9 -7 32 -18 30 -18 34 -3 50 9 10 13 21 9 26 -4 4
-16 -3 -26 -15 -22 -28 -30 -29 -30 -3 0 11 -4 20 -10 20 -5 0 -10 -25 -10
-55z"/>
</g>
</svg>
